<?xml version="1.0" encoding="UTF-8" standalone="no"?>
 <svg xmlns="http://www.w3.org/2000/svg" xml:space="preserve" width="308.761" height="304.916" viewBox="0 0 106.008 104.688">
  <g transform="translate(6.798 13.599) scale(0.941)">
    <path fill="#fff" d="M1055.472.198a224 224 0 1 0 0 448 224 224 0 1 0 0-448" opacity=".12"/>
    <rect width="197.154" height="444.09" x="539.535" y="-383.787" fill="none" rx="0" ry="0" transform="translate(400.5 400.5)"/>
    <path fill="#f012be" d="M1122.612 361.718h-150.92V87.798h143.06v42.83h-93.93v64.06h74.67v41.66h-74.67v80.96h101.79Z"/>
    <rect width="197.154" height="444.09" x="539.535" y="-383.787" fill="none" rx="0" ry="0" transform="translate(430.87 400.5)"/>
    <path fill="#52b9b9" d="M1152.982 361.718h-150.91V87.798h143.05v42.83h-93.93v64.06h74.67v41.66h-74.67v80.96h101.79Z"/>
    <rect width="197.154" height="444.09" x="539.535" y="-383.787" fill="none" rx="0" ry="0" transform="translate(417.86 400.5)"/>
    <path fill="#fff" d="M1139.972 361.718h-150.91V87.798h143.05v42.83h-93.92v64.06h74.67v41.66h-74.67v80.96h101.78Z"/>
  </g>
  <path fill="transparent" stroke="transparent" d="M884.782 0h339v461h-339z"/>
</svg>
